<svg width="107" height="32" viewBox="0 0 107 32" fill="none" xmlns="http://www.w3.org/2000/svg">
<path d="M0 4C0 1.79086 1.79086 0 4 0H28C30.2091 0 32 1.79086 32 4V28C32 30.2091 30.2091 32 28 32H4C1.79086 32 0 30.2091 0 28V4Z" fill="#BEF264"/>
<rect x="15.3334" y="5.3335" width="1.33333" height="8" rx="0.666667" fill="#022C22"/>
<rect x="15.3334" y="18.667" width="1.33333" height="8" rx="0.666667" fill="#022C22"/>
<rect x="23.071" y="7.98633" width="1.33333" height="8" rx="0.666667" transform="rotate(45 23.071 7.98633)" fill="#022C22"/>
<rect x="13.6429" y="17.4146" width="1.33333" height="8" rx="0.666667" transform="rotate(45 13.6429 17.4146)" fill="#022C22"/>
<rect x="18.6668" y="16.667" width="1.33333" height="8" rx="0.666667" transform="rotate(-90 18.6668 16.667)" fill="#022C22"/>
<rect x="5.33342" y="16.667" width="1.33333" height="8" rx="0.666667" transform="rotate(-90 5.33342 16.667)" fill="#022C22"/>
<rect x="17.4142" y="18.3574" width="1.33333" height="8" rx="0.666667" transform="rotate(-45 17.4142 18.3574)" fill="#022C22"/>
<rect x="7.98621" y="8.9292" width="1.33333" height="8" rx="0.666667" transform="rotate(-45 7.98621 8.9292)" fill="#022C22"/>
<path d="M48 26.3073V5.3335H50.9363V26.3073H48ZM50.5468 17.3185V14.6219H59.4457V17.3185H50.5468ZM50.5468 8.03013V5.3335H60.7041V8.03013H50.5468Z" fill="white"/>
<path d="M62.7685 26.3073V5.3335H65.6149V26.3073H62.7685Z" fill="white"/>
<path d="M75.4295 26.6668C73.9314 26.6668 72.6131 26.3372 71.4745 25.6781C70.3359 24.9989 69.437 24.0701 68.7779 22.8915C68.1387 21.713 67.8191 20.3547 67.8191 18.8166C67.8191 17.2786 68.1387 15.9203 68.7779 14.7417C69.4171 13.5632 70.3059 12.6444 71.4445 11.9852C72.5831 11.306 73.8915 10.9665 75.3696 10.9665C76.8478 10.9665 78.1561 11.306 79.2947 11.9852C80.4333 12.6444 81.3222 13.5632 81.9614 14.7417C82.6006 15.9203 82.9202 17.2786 82.9202 18.8166C82.9202 20.3547 82.6006 21.713 81.9614 22.8915C81.3222 24.0701 80.4333 24.9989 79.2947 25.6781C78.1761 26.3372 76.8877 26.6668 75.4295 26.6668ZM75.4295 24.0601C76.3284 24.0601 77.1274 23.8404 77.8265 23.4009C78.5257 22.9415 79.065 22.3223 79.4445 21.5432C79.844 20.7642 80.0438 19.8553 80.0438 18.8166C80.0438 17.7779 79.844 16.8691 79.4445 16.0901C79.065 15.311 78.5157 14.7018 77.7966 14.2623C77.0775 13.8029 76.2685 13.5732 75.3696 13.5732C74.4508 13.5732 73.6418 13.8029 72.9426 14.2623C72.2435 14.7018 71.6942 15.311 71.2947 16.0901C70.8952 16.8691 70.6955 17.7779 70.6955 18.8166C70.6955 19.8553 70.8952 20.7642 71.2947 21.5432C71.6942 22.3223 72.2535 22.9415 72.9726 23.4009C73.6917 23.8404 74.5107 24.0601 75.4295 24.0601Z" fill="white"/>
<path d="M98.3944 26.3073L103.458 11.326H106.305L101.211 26.3073H98.3944ZM88.297 26.3073L93.2708 11.326H95.8476L90.9337 26.3073H88.297ZM88.0873 26.3073L82.9937 11.326H85.8701L90.8139 26.3073H88.0873ZM98.3944 26.3073L93.4806 11.326H96.0873L101.031 26.3073H98.3944Z" fill="white"/>
</svg>
