<svg width="186" height="40" viewBox="0 0 186 40" fill="none" xmlns="http://www.w3.org/2000/svg">
<path d="M29.7852 17.828C29.2817 18.3364 28.8961 18.95 28.6559 19.6249C28.4157 20.3 28.3268 21.0199 28.3955 21.7333L28.3716 21.7093C28.4423 22.5492 28.3294 23.3943 28.0409 24.1859C27.7525 24.9773 27.2955 25.6961 26.7017 26.2921C26.1079 26.888 25.3916 27.3468 24.6029 27.6361C23.8142 27.9256 22.972 28.0389 22.1353 27.968L22.1592 27.992C21.1583 27.8985 20.1529 28.1171 19.2802 28.618C18.4076 29.1189 17.7101 29.8777 17.283 30.7911C16.8558 31.7044 16.7196 32.7276 16.8932 33.7215C17.0668 34.7152 17.5415 35.6311 18.2527 36.3441C18.9639 37.0572 19.8769 37.5328 20.8672 37.706C21.8576 37.8793 22.877 37.7417 23.7867 37.3123C24.6964 36.8827 25.4518 36.1821 25.9502 35.3059C26.4485 34.4296 26.6655 33.4205 26.5714 32.416L26.5966 32.44C26.526 31.6003 26.6388 30.7551 26.9272 29.9635C27.2156 29.172 27.6728 28.4532 28.2665 27.8572C28.8604 27.2613 29.5766 26.8025 30.3653 26.5132C31.154 26.2237 31.9961 26.1104 32.833 26.1813L32.8077 26.1573C33.6253 26.2311 34.4484 26.0965 35.2005 25.7661C35.9524 25.4357 36.6093 24.9201 37.1099 24.2672C37.6105 23.6143 37.9389 22.8449 38.0643 22.0308C38.1899 21.2165 38.1086 20.3837 37.828 19.6093C37.5474 18.8351 37.0765 18.1444 36.4592 17.6013C35.8418 17.0583 35.0978 16.6804 34.2961 16.5028C33.4944 16.3252 32.661 16.3535 31.8732 16.5851C31.0854 16.8168 30.3686 17.2443 29.7892 17.828H29.7852Z" fill="white" fill-opacity="0.8"/>
<path d="M19.9844 24.8478L19.9591 24.8238C20.6703 24.8957 21.3886 24.8081 22.062 24.5673C22.7353 24.3265 23.347 23.9386 23.8527 23.4316C24.3582 22.9245 24.7453 22.3109 24.9857 21.6353C25.2261 20.9597 25.314 20.239 25.2429 19.5252L25.2681 19.5492C25.1974 18.7093 25.3104 17.8642 25.5987 17.0726C25.8871 16.2812 26.3443 15.5624 26.938 14.9664C27.5319 14.3705 28.2481 13.9117 29.0367 13.6224C29.8255 13.3328 30.6676 13.2196 31.5044 13.2905L31.4792 13.2665C32.4803 13.3609 33.4859 13.143 34.359 12.6426C35.2323 12.1423 35.9303 11.3838 36.3581 10.4706C36.7859 9.55749 36.9226 8.53411 36.7496 7.5401C36.5766 6.54609 36.1023 5.62985 35.3913 4.91633C34.6804 4.20282 33.7674 3.72677 32.7769 3.55314C31.7865 3.3795 30.7668 3.51671 29.8569 3.94607C28.9469 4.37542 28.1912 5.07602 27.6926 5.9523C27.194 6.82857 26.9769 7.83786 27.071 8.8425L27.0471 8.81716C27.1179 9.65702 27.0052 10.5023 26.7169 11.2939C26.4286 12.0855 25.9715 12.8044 25.3777 13.4005C24.7838 13.9964 24.0675 14.4552 23.2787 14.7445C22.4898 15.0338 21.6476 15.1469 20.8108 15.0758L20.8347 15.1012C20.1235 15.0293 19.4051 15.1169 18.7318 15.3577C18.0585 15.5984 17.4468 15.9864 16.9412 16.4934C16.4355 17.0005 16.0485 17.6141 15.808 18.2897C15.5677 18.9653 15.4799 19.686 15.5509 20.3998L15.527 20.3758C15.5974 21.2156 15.4844 22.0606 15.196 22.8521C14.9074 23.6434 14.4504 24.3622 13.8566 24.9581C13.2628 25.554 12.5467 26.0126 11.7581 26.3022C10.9695 26.5917 10.1275 26.7052 9.29072 26.6345L9.31463 26.6585C8.31358 26.5641 7.30789 26.782 6.43474 27.2824C5.5616 27.7828 4.8635 28.5412 4.43569 29.4544C4.00786 30.3676 3.87113 31.3909 4.04415 32.3849C4.21717 33.3789 4.69152 34.2952 5.40248 35.0086C6.11345 35.7222 7.02642 36.1982 8.01688 36.3718C9.00734 36.5454 10.0271 36.4082 10.937 35.9789C11.8468 35.5496 12.6026 34.849 13.1012 33.9728C13.5998 33.0964 13.8169 32.0872 13.7228 31.0825L13.7481 31.1065C13.6774 30.2666 13.7903 29.4216 14.0788 28.63C14.3671 27.8385 14.8242 27.1197 15.418 26.5237C16.0118 25.9278 16.7281 25.469 17.5167 25.1797C18.3055 24.8902 19.1475 24.7769 19.9844 24.8478Z" fill="white" fill-opacity="0.8"/>
<path d="M11.0803 22.1721C11.5839 21.6638 11.9694 21.0502 12.2094 20.3751C12.4494 19.7001 12.5379 18.9801 12.4687 18.2667L12.4939 18.2907C12.4232 17.4507 12.5361 16.6053 12.8247 15.8135C13.1133 15.0218 13.5706 14.3029 14.1647 13.7069C14.7589 13.1109 15.4754 12.6523 16.2644 12.363C17.0534 12.0737 17.8959 11.9608 18.7329 12.0321L18.7076 12.0081C19.7083 12.1022 20.7137 11.8842 21.5864 11.3839C22.4591 10.8836 23.1568 10.1253 23.5844 9.21239C24.012 8.29951 24.1485 7.27651 23.9756 6.28287C23.8026 5.28923 23.3283 4.37334 22.6176 3.66008C21.907 2.94683 20.9942 2.47094 20.0042 2.29731C19.0141 2.12367 17.9947 2.26076 17.0852 2.68986C16.1755 3.11895 15.42 3.81918 14.9215 4.69504C14.4229 5.57091 14.2056 6.57979 14.2994 7.58408L14.2755 7.56008C14.3462 8.39988 14.2333 9.24504 13.9448 10.0366C13.6564 10.8281 13.1994 11.5469 12.6056 12.1428C12.0118 12.7388 11.2955 13.1975 10.5068 13.4869C9.71814 13.7763 8.87601 13.8897 8.03921 13.8187L8.06313 13.8427C7.24549 13.7691 6.42255 13.9039 5.67061 14.2345C4.91867 14.565 4.26202 15.0807 3.76153 15.7338C3.26105 16.3867 2.93292 17.1561 2.80753 17.9702C2.68215 18.7845 2.76358 19.6173 3.04426 20.3914C3.32495 21.1657 3.79584 21.8562 4.41326 22.3991C5.03069 22.9422 5.77469 23.3199 6.57632 23.4975C7.37794 23.675 8.21126 23.6466 8.99907 23.415C9.78686 23.1833 10.5036 22.7558 11.083 22.1721H11.0803Z" fill="white" fill-opacity="0.8"/>
<path d="M52.2355 8.87354H56.1813V28.1442H52.2355V8.87354Z" fill="white" fill-opacity="0.8"/>
<path d="M58.416 21.5455C58.4105 20.1607 58.8147 18.8052 59.5773 17.6511C60.3399 16.4969 61.4266 15.5959 62.6999 15.0621C63.9732 14.5283 65.3757 14.3857 66.7298 14.6525C68.0838 14.9193 69.3286 15.5833 70.3063 16.5607C71.284 17.5379 71.9506 18.7844 72.2219 20.1423C72.4932 21.5001 72.3568 22.9083 71.83 24.1883C71.3032 25.4681 70.4098 26.5625 69.2628 27.3324C68.1157 28.1024 66.767 28.5135 65.387 28.5135C64.4711 28.524 63.5622 28.3511 62.7135 28.0049C61.8648 27.6588 61.0934 27.1464 60.4444 26.4977C59.7953 25.8489 59.2817 25.0768 58.9334 24.2265C58.5851 23.3763 58.4092 22.4648 58.416 21.5455ZM68.4121 21.5455C68.3957 20.9485 68.2042 20.3697 67.8618 19.8813C67.5193 19.3931 67.041 19.0168 66.4868 18.7999C65.9324 18.5828 65.3267 18.5345 64.7451 18.6612C64.1636 18.7879 63.6322 19.0836 63.2173 19.5117C62.8025 19.9397 62.5224 20.4811 62.4126 21.068C62.3026 21.6548 62.3673 22.2612 62.5988 22.8113C62.8304 23.3615 63.2183 23.8308 63.7142 24.1608C64.2101 24.4908 64.792 24.6668 65.387 24.6668C65.7944 24.6777 66.1998 24.6037 66.5775 24.4496C66.9551 24.2955 67.2968 24.0645 67.581 23.7713C67.8652 23.478 68.0858 23.1288 68.2288 22.7457C68.3719 22.3627 68.4343 21.954 68.4121 21.5455Z" fill="white" fill-opacity="0.8"/>
<path d="M88.0843 14.9452V27.4786C88.0843 31.9132 84.638 33.7879 81.1399 33.7879C79.9083 33.8804 78.675 33.6307 77.5753 33.0663C76.4758 32.5018 75.5523 31.6443 74.9062 30.5879L78.2728 28.6346C78.5444 29.1852 78.9771 29.6395 79.5129 29.9367C80.0489 30.2338 80.6624 30.3596 81.2714 30.2972C81.6607 30.3514 82.0571 30.317 82.4314 30.1966C82.8055 30.0762 83.148 29.8728 83.4334 29.6018C83.7188 29.3306 83.9397 28.9986 84.08 28.63C84.2202 28.2616 84.276 27.8663 84.2434 27.4732V26.2666C83.7814 26.8339 83.1933 27.2847 82.5263 27.5827C81.8592 27.8807 81.1319 28.0176 80.4025 27.9826C78.6672 27.9276 77.0212 27.1972 75.813 25.9458C74.6048 24.6944 73.9292 23.0203 73.9292 21.2779C73.9292 19.5355 74.6048 17.8614 75.813 16.61C77.0212 15.3586 78.6672 14.6282 80.4025 14.5732C81.1319 14.5382 81.8592 14.6751 82.5263 14.9731C83.1933 15.2711 83.7814 15.7219 84.2434 16.2892V14.9426L88.0843 14.9452ZM84.2448 21.2799C84.2713 20.6418 84.1069 20.0102 83.7727 19.4666C83.4386 18.9228 82.9499 18.492 82.3697 18.2295C81.7896 17.9668 81.1444 17.8846 80.5172 17.9931C79.89 18.1016 79.3095 18.396 78.8504 18.8386C78.3913 19.281 78.0747 19.8511 77.9412 20.4756C77.8078 21.1002 77.8636 21.7506 78.1017 22.343C78.3397 22.9354 78.7489 23.4428 79.2766 23.7999C79.8043 24.157 80.4264 24.3474 81.0628 24.3466C81.4775 24.3756 81.8935 24.3172 82.2842 24.1751C82.6749 24.033 83.0316 23.8102 83.3314 23.5214C83.6311 23.2324 83.8673 22.8838 84.0246 22.4976C84.1819 22.1116 84.257 21.6968 84.2448 21.2799Z" fill="white" fill-opacity="0.8"/>
<path d="M90.3189 21.5455C90.3135 20.1607 90.7175 18.8052 91.4802 17.6511C92.2428 16.4969 93.3296 15.5959 94.6029 15.0621C95.8762 14.5283 97.2786 14.3857 98.6327 14.6525C99.9868 14.9193 101.232 15.5833 102.209 16.5607C103.187 17.5379 103.854 18.7844 104.125 20.1423C104.396 21.5001 104.26 22.9083 103.733 24.1883C103.206 25.4681 102.313 26.5625 101.166 27.3324C100.019 28.1024 98.6699 28.5135 97.2899 28.5135C96.374 28.524 95.465 28.3511 94.6164 28.0049C93.7677 27.6588 92.9964 27.1464 92.3474 26.4977C91.6982 25.8489 91.1846 25.0768 90.8364 24.2265C90.488 23.3763 90.3121 22.4648 90.3189 21.5455ZM100.315 21.5455C100.299 20.9485 100.107 20.3697 99.7648 19.8813C99.4223 19.3931 98.944 19.0168 98.3897 18.7999C97.8353 18.5828 97.2295 18.5345 96.6481 18.6612C96.0666 18.7879 95.5352 19.0836 95.1202 19.5117C94.7055 19.9397 94.4254 20.4811 94.3154 21.068C94.2054 21.6548 94.2702 22.2612 94.5018 22.8113C94.7334 23.3615 95.1213 23.8308 95.6171 24.1608C96.1131 24.4908 96.6949 24.6668 97.2899 24.6668C97.6974 24.6777 98.1027 24.6037 98.4803 24.4496C98.858 24.2955 99.1997 24.0645 99.4839 23.7713C99.7681 23.478 99.9888 23.1288 100.132 22.7457C100.275 22.3627 100.337 21.954 100.315 21.5455Z" fill="white" fill-opacity="0.8"/>
<path d="M106.101 11.4082C106.101 10.9383 106.24 10.4789 106.5 10.0882C106.76 9.69747 107.13 9.39292 107.563 9.2131C107.995 9.03326 108.471 8.9862 108.931 9.07788C109.39 9.16956 109.812 9.39586 110.143 9.72815C110.474 10.0604 110.699 10.4838 110.791 10.9447C110.882 11.4056 110.835 11.8833 110.656 12.3175C110.477 12.7516 110.173 13.1227 109.784 13.3838C109.395 13.6449 108.937 13.7842 108.469 13.7842C107.843 13.778 107.244 13.5257 106.801 13.0814C106.359 12.6372 106.107 12.0364 106.101 11.4082ZM106.5 14.9456H110.447V28.1456H106.494L106.5 14.9456Z" fill="white" fill-opacity="0.8"/>
<path d="M127.484 21.5455C127.53 22.4179 127.403 23.2907 127.112 24.1138C126.82 24.9369 126.369 25.6939 125.785 26.3415C125.201 26.989 124.494 27.5143 123.707 27.8871C122.92 28.2598 122.067 28.4727 121.198 28.5135C120.466 28.5535 119.735 28.4298 119.058 28.1513C118.38 27.8726 117.773 27.4462 117.28 26.9029V33.4242H113.334V14.9455H117.28V16.1855C117.773 15.6426 118.38 15.2165 119.058 14.9382C119.736 14.6598 120.466 14.5362 121.198 14.5762C122.067 14.6169 122.92 14.8297 123.708 15.2025C124.495 15.5753 125.201 16.1006 125.786 16.7483C126.37 17.3961 126.821 18.1534 127.112 18.9767C127.404 19.7999 127.53 20.673 127.484 21.5455ZM123.538 21.5455C123.523 20.9278 123.326 20.3283 122.973 19.8221C122.62 19.3159 122.126 18.9255 121.553 18.6999C120.979 18.4742 120.353 18.4231 119.751 18.5533C119.149 18.6833 118.598 18.9886 118.168 19.431C117.738 19.8735 117.448 20.4333 117.334 21.0406C117.219 21.6478 117.286 22.2753 117.525 22.8447C117.764 23.4142 118.166 23.9001 118.679 24.2418C119.192 24.5834 119.794 24.7657 120.41 24.7655C120.832 24.7845 121.254 24.7134 121.648 24.5571C122.041 24.401 122.398 24.163 122.693 23.859C122.988 23.5549 123.216 23.1917 123.362 22.793C123.508 22.3943 123.568 21.9691 123.538 21.5455Z" fill="white" fill-opacity="0.8"/>
<path d="M139.661 24.1841C139.661 27.2201 137.031 28.5135 134.191 28.5135C133.043 28.6177 131.891 28.3743 130.883 27.8141C129.874 27.2541 129.057 26.4035 128.535 25.3721L131.954 23.4188C132.092 23.8955 132.389 24.3103 132.795 24.5936C133.201 24.8771 133.693 25.0121 134.186 24.9761C135.132 24.9761 135.606 24.6855 135.606 24.1588C135.606 22.7055 129.134 23.4721 129.134 18.9055C129.134 16.0268 131.555 14.5761 134.291 14.5761C135.319 14.5435 136.337 14.7883 137.239 15.2849C138.141 15.7817 138.894 16.5121 139.419 17.4001L136.052 19.2215C135.905 18.8757 135.659 18.5812 135.346 18.3747C135.032 18.1681 134.665 18.0588 134.291 18.0601C133.606 18.0601 133.185 18.3268 133.185 18.7988C133.191 20.3041 139.661 19.3001 139.661 24.1841Z" fill="white" fill-opacity="0.8"/>
<path d="M154.074 14.9453V28.1453H150.129V26.904C149.673 27.4517 149.095 27.8833 148.441 28.1633C147.788 28.4433 147.078 28.5637 146.369 28.5146C143.712 28.5146 141.453 26.6146 141.453 23.048V14.9453H145.399V22.468C145.366 22.7824 145.402 23.1002 145.504 23.3993C145.605 23.6985 145.771 23.9718 145.989 24.2002C146.207 24.4286 146.471 24.6066 146.765 24.722C147.057 24.8373 147.372 24.8872 147.687 24.868C149.133 24.868 150.133 24.024 150.133 22.1493V14.9493L154.074 14.9453Z" fill="white" fill-opacity="0.8"/>
<path d="M176.7 20.04V28.144H172.754V20.3826C172.754 19.0626 172.123 18.2186 170.861 18.2186C169.546 18.2186 168.808 19.1426 168.808 20.7V28.144H164.864V20.3826C164.864 19.0626 164.233 18.2186 162.969 18.2186C161.654 18.2186 160.918 19.1426 160.918 20.7V28.144H156.972V14.944H160.918V16.1573C161.327 15.619 161.864 15.1921 162.479 14.9157C163.095 14.6392 163.77 14.522 164.443 14.5746C165.118 14.5414 165.79 14.6845 166.394 14.9897C166.997 15.2948 167.512 15.7518 167.888 16.316C168.325 15.7257 168.904 15.2564 169.571 14.9518C170.238 14.6473 170.971 14.5176 171.702 14.5746C174.722 14.576 176.7 16.74 176.7 20.04Z" fill="white" fill-opacity="0.8"/>
<path d="M180.037 14.8641C181.654 14.8641 182.965 13.5484 182.965 11.9255C182.965 10.3025 181.654 8.98682 180.037 8.98682C178.42 8.98682 177.109 10.3025 177.109 11.9255C177.109 13.5484 178.42 14.8641 180.037 14.8641Z" fill="white" fill-opacity="0.8"/>
</svg>
