<svg width="16" height="16" viewBox="0 0 16 16" fill="none" xmlns="http://www.w3.org/2000/svg">
<path d="M7.10329 0.816629C7.47013 0.0734614 8.52987 0.0734624 8.89671 0.81663L10.5486 4.16309C10.6941 4.45794 10.9753 4.6624 11.3006 4.70995L14.9962 5.25012C15.8161 5.36996 16.1429 6.3778 15.5493 6.95596L12.8768 9.55901C12.6409 9.78875 12.5333 10.1199 12.5889 10.4444L13.2194 14.1206C13.3595 14.9376 12.502 15.5606 11.7684 15.1747L8.46545 13.4378C8.17407 13.2845 7.82593 13.2845 7.53455 13.4378L4.23163 15.1747C3.498 15.5606 2.64045 14.9376 2.78057 14.1206L3.41109 10.4444C3.46675 10.1199 3.35908 9.78875 3.12321 9.55901L0.45068 6.95596C-0.142913 6.3778 0.183869 5.36996 1.00378 5.25012L4.69937 4.70995C5.02472 4.6624 5.30591 4.45794 5.45145 4.16309L7.10329 0.816629Z" fill="#BEF264"/>
</svg>
