<svg width="48" height="48" viewBox="0 0 48 48" fill="none" xmlns="http://www.w3.org/2000/svg">
<path d="M0 8C0 3.58172 3.58172 0 8 0H40C44.4183 0 48 3.58172 48 8V40C48 44.4183 44.4183 48 40 48H8C3.58172 48 0 44.4183 0 40V8Z" fill="#BEF264"/>
<path d="M13.6761 15.5617C11.7952 17.8602 10.6667 20.7983 10.6667 24C10.6667 27.2017 11.7952 30.1398 13.6761 32.4383L18.9201 27.1944C18.3372 26.2694 18 25.174 18 24C18 22.8259 18.3372 21.7306 18.9201 20.8057L13.6761 15.5617Z" fill="#022C22"/>
<path d="M15.5617 13.6761L20.8057 18.9201C21.7306 18.3372 22.8259 18 24 18C25.1741 18 26.2694 18.3372 27.1944 18.9201L32.4384 13.6761C30.1399 11.7951 27.2017 10.6666 24 10.6666C20.7983 10.6666 17.8602 11.7951 15.5617 13.6761Z" fill="#022C22"/>
<path d="M34.324 15.5617L29.08 20.8057C29.6628 21.7307 30 22.8259 30 24C30 25.174 29.6628 26.2693 29.0799 27.1943L34.3239 32.4383C36.2049 30.1398 37.3334 27.2017 37.3334 24C37.3334 20.7983 36.2049 17.8602 34.324 15.5617Z" fill="#022C22"/>
<path d="M32.4383 34.3239L27.1943 29.0799C26.2693 29.6628 25.1741 30 24 30C22.826 30 21.7307 29.6628 20.8058 29.0799L15.5618 34.3239C17.8603 36.2048 20.7984 37.3333 24 37.3333C27.2017 37.3333 30.1398 36.2048 32.4383 34.3239Z" fill="#022C22"/>
</svg>
